<mxfile host="Electron" agent="Mozilla/5.0 (X11; Linux x86_64) AppleWebKit/537.36 (KHTML, like Gecko) draw.io/24.7.5 Chrome/126.0.6478.183 Electron/31.3.0 Safari/537.36" version="24.7.5">
  <diagram name="Page-1" id="78ttWFFSckngOhqbvXkc">
    <mxGraphModel dx="1364" dy="843" grid="1" gridSize="10" guides="1" tooltips="1" connect="1" arrows="1" fold="1" page="1" pageScale="1" pageWidth="850" pageHeight="1100" math="0" shadow="0">
      <root>
        <mxCell id="0" />
        <mxCell id="1" parent="0" />
        <mxCell id="j4t_XPUDl0UHoJXXfJ8K-1" value="" style="endArrow=classic;html=1;rounded=0;strokeWidth=5;fillColor=#d5e8d4;strokeColor=#82b366;" edge="1" parent="1">
          <mxGeometry width="50" height="50" relative="1" as="geometry">
            <mxPoint x="160" y="440" as="sourcePoint" />
            <mxPoint x="160" y="240" as="targetPoint" />
          </mxGeometry>
        </mxCell>
        <mxCell id="j4t_XPUDl0UHoJXXfJ8K-2" value="" style="endArrow=classic;html=1;rounded=0;strokeWidth=5;fillColor=#d5e8d4;strokeColor=#82b366;" edge="1" parent="1">
          <mxGeometry width="50" height="50" relative="1" as="geometry">
            <mxPoint x="160" y="440" as="sourcePoint" />
            <mxPoint x="400" y="440" as="targetPoint" />
          </mxGeometry>
        </mxCell>
        <mxCell id="j4t_XPUDl0UHoJXXfJ8K-3" value="King" style="text;html=1;align=center;verticalAlign=middle;whiteSpace=wrap;rounded=0;fillColor=#d5e8d4;strokeColor=#82b366;" vertex="1" parent="1">
          <mxGeometry x="120" y="125" width="60" height="30" as="geometry" />
        </mxCell>
        <mxCell id="j4t_XPUDl0UHoJXXfJ8K-4" value="12337" style="rounded=1;whiteSpace=wrap;html=1;fillColor=#d5e8d4;strokeColor=#82b366;" vertex="1" parent="1">
          <mxGeometry x="220" y="125" width="120" height="30" as="geometry" />
        </mxCell>
        <mxCell id="j4t_XPUDl0UHoJXXfJ8K-5" value="&lt;h1 style=&quot;margin-top: 0px; font-size: 14px;&quot;&gt;Encoding&lt;/h1&gt;" style="text;html=1;whiteSpace=wrap;overflow=hidden;rounded=0;sketch=1;curveFitting=1;jiggle=2;fontSize=14;align=center;fillColor=#d5e8d4;strokeColor=#82b366;" vertex="1" parent="1">
          <mxGeometry x="220" y="85" width="130" height="30" as="geometry" />
        </mxCell>
        <mxCell id="j4t_XPUDl0UHoJXXfJ8K-48" value="" style="endArrow=classic;html=1;rounded=0;fillColor=#d5e8d4;strokeColor=#82b366;" edge="1" parent="1">
          <mxGeometry width="50" height="50" relative="1" as="geometry">
            <mxPoint x="160" y="440" as="sourcePoint" />
            <mxPoint x="280" y="280" as="targetPoint" />
          </mxGeometry>
        </mxCell>
        <mxCell id="j4t_XPUDl0UHoJXXfJ8K-49" value="King" style="text;html=1;align=center;verticalAlign=middle;whiteSpace=wrap;rounded=0;rotation=-52;fillColor=#d5e8d4;strokeColor=#82b366;" vertex="1" parent="1">
          <mxGeometry x="200" y="290" width="60" height="30" as="geometry" />
        </mxCell>
        <mxCell id="j4t_XPUDl0UHoJXXfJ8K-51" value="" style="group;fillColor=#d5e8d4;strokeColor=#82b366;" vertex="1" connectable="0" parent="1">
          <mxGeometry x="400" y="125" width="50" height="25" as="geometry" />
        </mxCell>
        <mxCell id="j4t_XPUDl0UHoJXXfJ8K-45" value="0.3" style="whiteSpace=wrap;html=1;aspect=fixed;fillColor=#d5e8d4;strokeColor=#82b366;" vertex="1" parent="j4t_XPUDl0UHoJXXfJ8K-51">
          <mxGeometry width="25" height="25" as="geometry" />
        </mxCell>
        <mxCell id="j4t_XPUDl0UHoJXXfJ8K-46" value="0.4" style="whiteSpace=wrap;html=1;aspect=fixed;fillColor=#d5e8d4;strokeColor=#82b366;" vertex="1" parent="j4t_XPUDl0UHoJXXfJ8K-51">
          <mxGeometry x="25" width="25" height="25" as="geometry" />
        </mxCell>
        <mxCell id="j4t_XPUDl0UHoJXXfJ8K-52" value="&lt;h1 style=&quot;margin-top: 0px; font-size: 14px;&quot;&gt;Embedding&lt;/h1&gt;" style="text;html=1;whiteSpace=wrap;overflow=hidden;rounded=0;fontSize=14;align=center;fillColor=#d5e8d4;strokeColor=#82b366;" vertex="1" parent="1">
          <mxGeometry x="370" y="85" width="130" height="30" as="geometry" />
        </mxCell>
        <mxCell id="j4t_XPUDl0UHoJXXfJ8K-53" value="Man" style="text;html=1;align=center;verticalAlign=middle;whiteSpace=wrap;rounded=0;fillColor=#d5e8d4;strokeColor=#82b366;" vertex="1" parent="1">
          <mxGeometry x="119" y="169" width="60" height="30" as="geometry" />
        </mxCell>
        <mxCell id="j4t_XPUDl0UHoJXXfJ8K-54" value="333" style="rounded=1;whiteSpace=wrap;html=1;fillColor=#d5e8d4;strokeColor=#82b366;" vertex="1" parent="1">
          <mxGeometry x="219" y="169" width="120" height="30" as="geometry" />
        </mxCell>
        <mxCell id="j4t_XPUDl0UHoJXXfJ8K-59" value="" style="group;fillColor=#d5e8d4;strokeColor=#82b366;" vertex="1" connectable="0" parent="1">
          <mxGeometry x="397" y="169" width="50" height="25" as="geometry" />
        </mxCell>
        <mxCell id="j4t_XPUDl0UHoJXXfJ8K-60" value="0.5" style="whiteSpace=wrap;html=1;aspect=fixed;fillColor=#d5e8d4;strokeColor=#82b366;" vertex="1" parent="j4t_XPUDl0UHoJXXfJ8K-59">
          <mxGeometry width="25" height="25" as="geometry" />
        </mxCell>
        <mxCell id="j4t_XPUDl0UHoJXXfJ8K-61" value="0.2" style="whiteSpace=wrap;html=1;aspect=fixed;fillColor=#d5e8d4;strokeColor=#82b366;" vertex="1" parent="j4t_XPUDl0UHoJXXfJ8K-59">
          <mxGeometry x="25" width="25" height="25" as="geometry" />
        </mxCell>
        <mxCell id="j4t_XPUDl0UHoJXXfJ8K-62" value="" style="endArrow=classic;html=1;rounded=0;fillColor=#d5e8d4;strokeColor=#82b366;" edge="1" parent="1">
          <mxGeometry width="50" height="50" relative="1" as="geometry">
            <mxPoint x="170" y="440" as="sourcePoint" />
            <mxPoint x="360" y="360" as="targetPoint" />
          </mxGeometry>
        </mxCell>
        <mxCell id="j4t_XPUDl0UHoJXXfJ8K-63" value="Man" style="text;html=1;align=center;verticalAlign=middle;whiteSpace=wrap;rounded=0;rotation=-30;fillColor=#d5e8d4;strokeColor=#82b366;" vertex="1" parent="1">
          <mxGeometry x="245.96" y="372.22" width="70" height="10" as="geometry" />
        </mxCell>
      </root>
    </mxGraphModel>
  </diagram>
</mxfile>
